<svg width="23" height="23" viewBox="0 0 23 23" fill="none" xmlns="http://www.w3.org/2000/svg">
<path d="M20.6638 14.7109V5.55859C20.6638 5.17188 20.5922 4.81022 20.449 4.47363C20.3057 4.13704 20.1052 3.84701 19.8474 3.60352C19.6039 3.36003 19.3139 3.16667 18.9773 3.02344C18.6407 2.88021 18.2862 2.80859 17.9138 2.80859H5.06616C4.69377 2.80859 4.33927 2.88021 4.00269 3.02344C3.6661 3.16667 3.37606 3.36003 3.13257 3.60352C2.88908 3.86133 2.69214 4.15495 2.54175 4.48438C2.39136 4.8138 2.31616 5.17188 2.31616 5.55859V20.2109C2.31616 20.3398 2.34123 20.458 2.39136 20.5654C2.44149 20.6729 2.50952 20.7695 2.59546 20.8555C2.76733 21.0417 2.98218 21.1348 3.23999 21.1348C3.4978 21.1348 3.71265 21.0417 3.88452 20.8555L7.27905 17.4609H17.9138C18.2862 17.4609 18.6407 17.3893 18.9773 17.2461C19.3139 17.1029 19.6039 16.9095 19.8474 16.666C20.0909 16.4082 20.2878 16.1146 20.4382 15.7852C20.5886 15.4557 20.6638 15.0977 20.6638 14.7109ZM18.8162 14.7109C18.8162 14.8398 18.7947 14.9616 18.7517 15.0762C18.7087 15.1908 18.6443 15.2839 18.5583 15.3555C18.4724 15.4414 18.3722 15.5094 18.2576 15.5596C18.143 15.6097 18.0284 15.6348 17.9138 15.6348H6.91382C6.78491 15.6348 6.66317 15.6598 6.54858 15.71C6.434 15.7601 6.3409 15.8281 6.26929 15.9141L4.16382 17.998V5.55859C4.16382 5.42969 4.1853 5.30794 4.22827 5.19336C4.27124 5.07878 4.33569 4.98568 4.42163 4.91406C4.50757 4.82812 4.60783 4.76009 4.72241 4.70996C4.837 4.65983 4.95158 4.63477 5.06616 4.63477H17.9138C18.0284 4.63477 18.143 4.65983 18.2576 4.70996C18.3722 4.76009 18.4724 4.82812 18.5583 4.91406C18.6443 4.98568 18.7087 5.07878 18.7517 5.19336C18.7947 5.30794 18.8162 5.42969 18.8162 5.55859V14.7109Z" fill="white"/>
</svg>
