<svg width="23" height="23" viewBox="0 0 23 23" fill="none" xmlns="http://www.w3.org/2000/svg">
<g clip-path="url(#clip0_7_477)">
<path d="M14.0211 6.46094C14.4508 6.53255 14.8447 6.67936 15.2027 6.90137C15.5608 7.12337 15.8759 7.39193 16.1481 7.70703C16.3343 7.9362 16.4954 8.19043 16.6315 8.46973C16.7675 8.74902 16.8642 9.04622 16.9215 9.36133C16.9645 9.60482 17.0934 9.79818 17.3082 9.94141C17.5231 10.0846 17.7522 10.1276 17.9957 10.0703C18.2392 10.0273 18.4326 9.89844 18.5758 9.68359C18.719 9.46875 18.7691 9.23958 18.7262 8.99609C18.6259 8.53776 18.4755 8.10091 18.275 7.68555C18.0745 7.27018 17.831 6.89062 17.5445 6.54688C17.1578 6.07422 16.6959 5.67318 16.1588 5.34375C15.6217 5.01432 15.0237 4.78516 14.3649 4.65625C14.1214 4.59896 13.8958 4.64193 13.6881 4.78516C13.4804 4.92838 13.3479 5.12891 13.2906 5.38672C13.2477 5.63021 13.2978 5.85579 13.441 6.06348C13.5843 6.27116 13.7776 6.40365 14.0211 6.46094ZM14.0856 2.78711C15.0022 2.90169 15.8544 3.16309 16.6422 3.57129C17.43 3.97949 18.1103 4.4987 18.6832 5.12891C19.1988 5.6875 19.6178 6.32129 19.94 7.03027C20.2623 7.73926 20.4736 8.48763 20.5738 9.27539C20.6025 9.51888 20.7171 9.7194 20.9176 9.87695C21.1181 10.0345 21.3401 10.099 21.5836 10.0703C21.8414 10.0417 22.0491 9.92708 22.2066 9.72656C22.3642 9.52604 22.4287 9.30404 22.4 9.06055C22.2854 8.07227 22.024 7.1377 21.6158 6.25684C21.2076 5.37598 20.6813 4.58463 20.0367 3.88281C19.3206 3.09505 18.4719 2.44336 17.4908 1.92773C16.5097 1.41211 15.4462 1.09701 14.3004 0.982422C14.0426 0.953775 13.817 1.01823 13.6236 1.17578C13.4303 1.33333 13.3193 1.53385 13.2906 1.77734C13.262 2.03516 13.3264 2.26074 13.484 2.4541C13.6415 2.64746 13.8421 2.75846 14.0856 2.78711ZM21.4762 16.4727C21.4905 16.1432 21.444 15.8281 21.3365 15.5273C21.2291 15.2266 21.0751 14.9473 20.8746 14.6895C20.6598 14.4316 20.402 14.2168 20.1012 14.0449C19.8004 13.873 19.4638 13.7585 19.0914 13.7012C18.7333 13.6582 18.3538 13.5866 17.9527 13.4863C17.5517 13.3861 17.1435 13.2643 16.7281 13.1211C16.5276 13.0495 16.3235 12.9993 16.1158 12.9707C15.9081 12.9421 15.704 12.9349 15.5035 12.9492C15.2027 12.9779 14.9091 13.0602 14.6227 13.1963C14.3362 13.3324 14.0712 13.515 13.8277 13.7441L13.1617 14.3887C12.3596 13.8874 11.6005 13.2822 10.8844 12.5732C10.1682 11.8643 9.53087 11.0729 8.97227 10.1992L9.63829 9.5332C9.78152 9.37565 9.90684 9.20736 10.0143 9.02832C10.1217 8.84928 10.2112 8.6595 10.2828 8.45898C10.3831 8.17253 10.4332 7.87175 10.4332 7.55664C10.4332 7.24154 10.3688 6.93359 10.2399 6.63281C10.1109 6.27474 9.99636 5.89518 9.8961 5.49414C9.79584 5.0931 9.71706 4.67773 9.65977 4.24805C9.6168 3.91862 9.51654 3.61426 9.35899 3.33496C9.20144 3.05566 9.00808 2.80859 8.77891 2.59375C8.53542 2.36458 8.25255 2.18913 7.93028 2.06738C7.60801 1.94564 7.26785 1.88477 6.90977 1.88477H4.18126C4.13829 1.88477 4.09532 1.88477 4.05235 1.88477C4.00938 1.88477 3.96641 1.89193 3.92344 1.90625C3.55105 1.9349 3.20372 2.03516 2.88145 2.20703C2.55919 2.37891 2.28347 2.60091 2.0543 2.87305C1.82514 3.14518 1.65684 3.45312 1.54942 3.79688C1.442 4.14062 1.40261 4.50586 1.43126 4.89258C1.50287 5.5944 1.61745 6.30339 1.77501 7.01953C1.93256 7.72135 2.13308 8.42676 2.37657 9.13574C2.62006 9.84473 2.90652 10.5358 3.23594 11.209C3.57969 11.8965 3.95925 12.5697 4.37462 13.2285C4.71837 13.7871 5.09792 14.3314 5.51329 14.8613C5.92865 15.377 6.37982 15.8783 6.8668 16.3652C7.35378 16.8522 7.86941 17.3177 8.41368 17.7617C8.97227 18.2057 9.55235 18.6211 10.1539 19.0078C10.7412 19.3945 11.357 19.7526 12.0016 20.082C12.6604 20.4115 13.3372 20.7015 14.0318 20.9521C14.7265 21.2028 15.4462 21.4141 16.191 21.5859C16.9358 21.7578 17.7021 21.8867 18.4899 21.9727C18.5328 21.9727 18.5758 21.9762 18.6188 21.9834C18.6617 21.9906 18.7047 21.9941 18.7477 21.9941C19.1201 21.9941 19.4746 21.9189 19.8111 21.7686C20.1477 21.6182 20.4378 21.4212 20.6813 21.1777C20.9391 20.9199 21.136 20.6263 21.2721 20.2969C21.4081 19.9674 21.4762 19.6094 21.4762 19.2227V16.4727ZM19.65 16.4727V19.2227C19.65 19.3516 19.6249 19.4733 19.5748 19.5879C19.5247 19.7025 19.4638 19.8027 19.3922 19.8887C19.3063 19.9603 19.206 20.0212 19.0914 20.0713C18.9768 20.1214 18.8622 20.1465 18.7477 20.1465H18.6617C17.9599 20.0749 17.2724 19.9603 16.5992 19.8027C15.926 19.6452 15.2744 19.4518 14.6441 19.2227C14.0139 18.9935 13.4124 18.7357 12.8395 18.4492C12.2522 18.1484 11.6936 17.8262 11.1637 17.4824C10.6051 17.1243 10.0751 16.7448 9.57383 16.3438C9.08686 15.9427 8.62136 15.5238 8.17735 15.0869C7.73334 14.6501 7.32514 14.1953 6.95274 13.7227C6.58035 13.25 6.24376 12.763 5.94298 12.2617C5.55626 11.6602 5.20535 11.0443 4.89024 10.4141C4.58946 9.79818 4.32807 9.17155 4.10606 8.53418C3.88406 7.89681 3.70144 7.25586 3.55821 6.61133C3.41498 5.98112 3.31472 5.35091 3.25743 4.7207C3.24311 4.5918 3.25385 4.47005 3.28966 4.35547C3.32546 4.24088 3.38633 4.14062 3.47227 4.05469C3.54389 3.95443 3.63341 3.87565 3.74083 3.81836C3.84825 3.76107 3.96641 3.73242 4.09532 3.73242L6.90977 3.71094C7.03868 3.71094 7.15684 3.73242 7.26426 3.77539C7.37169 3.81836 7.46837 3.87565 7.5543 3.94727C7.62592 4.01888 7.68679 4.10124 7.73692 4.19434C7.78705 4.28744 7.81928 4.39128 7.8336 4.50586C7.90522 5.00716 8.00189 5.49056 8.12364 5.95605C8.24538 6.42155 8.38503 6.86198 8.54258 7.27734C8.57123 7.3776 8.58555 7.48145 8.58555 7.58887C8.58555 7.69629 8.57123 7.79297 8.54258 7.87891C8.52826 7.95052 8.49962 8.01855 8.45665 8.08301C8.41368 8.14746 8.37071 8.20117 8.32774 8.24414L7.16758 9.4043C7.02436 9.54753 6.93842 9.72298 6.90977 9.93066C6.88113 10.1383 6.91693 10.3281 7.01719 10.5C7.37527 11.1445 7.77631 11.7461 8.22032 12.3047C8.65001 12.8776 9.11192 13.4076 9.60606 13.8945C10.1002 14.3815 10.6266 14.8327 11.1852 15.248C11.7294 15.6634 12.288 16.0286 12.8609 16.3438C13.0471 16.444 13.2405 16.4798 13.441 16.4512C13.6415 16.4225 13.8134 16.3366 13.9566 16.1934L15.1383 15.0332C15.2099 14.9616 15.2923 14.9043 15.3854 14.8613C15.4785 14.8184 15.5751 14.7897 15.6754 14.7754C15.747 14.7754 15.8186 14.779 15.8902 14.7861C15.9619 14.7933 16.0335 14.8112 16.1051 14.8398C16.5634 15.0117 17.0289 15.1549 17.5016 15.2695C17.9742 15.3841 18.4326 15.4701 18.8766 15.5273C18.9912 15.5417 19.095 15.5775 19.1881 15.6348C19.2812 15.6921 19.3635 15.7637 19.4352 15.8496C19.5068 15.9355 19.5605 16.0322 19.5963 16.1396C19.6321 16.2471 19.65 16.3581 19.65 16.4727Z" fill="white"/>
</g>
<defs>
<clipPath id="clip0_7_477">
<rect width="22.8" height="22" fill="white" transform="matrix(1 0 0 -1 0 22.5098)"/>
</clipPath>
</defs>
</svg>
